<svg viewBox="0 0 500 500" xmlns="http://www.w3.org/2000/svg" width="500" height="500">
  <rect width="500" height="500" fill="#e8e0d6"/>
  <rect x="0" y="360" width="500" height="140" fill="#d4c8b8"/>
  <rect x="280" y="420" width="140" height="22" rx="2" fill="#cfc3b2"/>
  <rect x="280" y="398" width="140" height="22" rx="2" fill="#d4c8b8"/>
  <rect x="280" y="376" width="140" height="22" rx="2" fill="#d9cdc0"/>
  <rect x="280" y="354" width="140" height="22" rx="2" fill="#ddd2c4"/>
  <rect x="280" y="332" width="140" height="22" rx="2" fill="#e2d7ca"/>
  <rect x="280" y="310" width="140" height="22" rx="2" fill="#e6dbd0"/>
  <rect x="280" y="310" width="6" height="132" rx="1" fill="#c4b4a0"/>
  <rect x="330" y="332" width="5" height="110" rx="1" fill="#c4b4a0" opacity="0.5"/>
  <rect x="380" y="354" width="5" height="88" rx="1" fill="#c4b4a0" opacity="0.4"/>
  <circle cx="296" cy="298" r="10" fill="#a89888"/>
  <rect x="290" y="308" width="12" height="18" rx="3" fill="#a89888"/>
  <ellipse cx="150" cy="200" rx="120" ry="90" fill="rgba(200,188,174,0.2)"/>
  <ellipse cx="420" cy="150" rx="80" ry="60" fill="rgba(200,188,174,0.15)"/>
  <defs>
    <linearGradient id="g1" x1="0" y1="1" x2="0" y2="0">
      <stop offset="0%" stop-color="rgba(38,30,22,0.55)"/>
      <stop offset="45%" stop-color="rgba(38,30,22,0.15)"/>
      <stop offset="100%" stop-color="rgba(38,30,22,0.0)"/>
    </linearGradient>
  </defs>
  <rect width="500" height="500" fill="url(#g1)"/>
</svg>
